Coordinates
version=1
nRows=29
nColumns=22
inDegrees=yes

Units are S.I. units (second, meters, Newtons, ...)
If the header above contains a line with 'inDegrees', this indicates whether rotational values are in degrees (yes) or radians (no).

endheader
time	pelvis_tilt	pelvis_list	pelvis_rotation	pelvis_tx	pelvis_ty	pelvis_tz	hip_flexion_r	hip_adduction_r	hip_rotation_r	knee_angle_r	ankle_angle_r	subtalar_angle_r	hip_flexion_l	hip_adduction_l	hip_rotation_l	knee_angle_l	ankle_angle_l	subtalar_angle_l	lumbar_extension	lumbar_bending	lumbar_rotation
      2.78000000	     -1.05725124	      0.34098205	     -6.77330323	      0.34519709	      0.89959736	      0.20170479	     -2.34040131	     -0.57630009	      5.85058177	    -35.11949582	      9.07194174	      7.49354972	     23.21996040	     -3.89563027	    -14.26225823	    -16.81591933	     -2.14927094	     -7.99510790	     -9.36306313	     -5.94851575	     14.41140634
      2.79000000	     -1.00740539	      0.32782603	     -7.08017678	      0.33411425	      0.89811806	      0.20408519	     -2.23920255	     -0.40919621	      5.68612879	    -34.40123315	     10.95355725	      6.33237711	     23.52875147	     -4.18964552	    -14.50062601	    -16.27782014	     -1.59564898	     -7.31270008	     -9.78072279	     -6.03721088	     14.87648276
      2.80000000	     -0.95238968	      0.24430159	     -7.34803252	      0.32295685	      0.89678233	      0.20642301	     -2.06892848	     -0.15294410	      5.48980796	    -33.78178186	     12.69078645	      5.18541880	     23.81834567	     -4.55119034	    -14.73840627	    -15.74365556	     -0.90427957	     -6.52424369	    -10.22230830	     -6.03361961	     15.23873569
      2.81000000	     -0.90877224	      0.09232517	     -7.57889649	      0.31174333	      0.89557519	      0.20869778	     -1.81470139	      0.19057303	      5.27982636	    -33.25818758	     14.23418725	      4.11223720	     24.11621776	     -4.98364052	    -15.01378289	    -15.24626260	     -0.14628121	     -5.69122140	    -10.66881285	     -5.93719024	     15.52228656
      2.82000000	     -0.89667655	     -0.11965488	     -7.76002892	      0.30055180	      0.89448678	      0.21087528	     -1.48418141	      0.61406287	      5.06779154	    -32.78475486	     15.58083461	      3.11289966	     24.45196347	     -5.47699967	    -15.33775193	    -14.82082711	      0.59071653	     -4.85482788	    -11.08328077	     -5.75275843	     15.70363794
      2.83000000	     -0.91826096	     -0.38841950	     -7.91990600	      0.28941144	      0.89350956	      0.21297990	     -1.06800794	      1.11005909	      4.86885252	    -32.37889524	     16.71017375	      2.20125514	     24.84091871	     -6.04476299	    -15.75830915	    -14.53126422	      1.26049134	     -4.07461407	    -11.45846222	     -5.48781367	     15.81818940
      2.84000000	     -0.97830218	     -0.69643175	     -8.05116401	      0.27838942	      0.89264262	      0.21499164	     -0.57612712	      1.66164084	      4.68367561	    -32.02148494	     17.64139799	      1.34443295	     25.29903546	     -6.66779400	    -16.27441578	    -14.43049305	      1.81071563	     -3.38803333	    -11.77912006	     -5.16173301	     15.84602222
      2.85000000	     -1.07297939	     -1.02918476	     -8.16179874	      0.26754943	      0.89188906	      0.21690314	     -0.01938656	      2.24832038	      4.50990004	    -31.71107520	     18.39725892	      0.49793447	     25.82395190	     -7.33480259	    -16.87516174	    -14.56273427	      2.23871110	     -2.82295757	    -12.04041988	     -4.79305472	     15.79874868
      2.86000000	     -1.19297302	     -1.36224484	     -8.24717208	      0.25694104	      0.89127825	      0.21871358	      0.58579153	      2.84051836	      4.32614996	    -31.43602447	     19.01342724	     -0.37576607	     26.40424049	     -8.01664562	    -17.51624604	    -14.96058434	      2.53255381	     -2.38319643	    -12.24676970	     -4.41644220	     15.66476020
      2.87000000	     -1.31979048	     -1.68392588	     -8.31641933	      0.24658161	      0.89084203	      0.22042635	      1.22499889	      3.41940717	      4.12712815	    -31.20996117	     19.49469557	     -1.26842448	     27.01138638	     -8.69876978	    -18.13995141	    -15.63843723	      2.73671386	     -2.06510300	    -12.41823552	     -4.05026697	     15.45551882
      2.88000000	     -1.43130345	     -1.97828297	     -8.37041973	      0.23647474	      0.89063131	      0.22205234	      1.87540750	      3.96875274	      3.93038195	    -31.03527547	     19.81729270	     -2.13063484	     27.61172215	     -9.35764941	    -18.67962592	    -16.59504889	      2.89497136	     -1.85961081	    -12.58172086	     -3.72197049	     15.16626882
      2.89000000	     -1.51469043	     -2.23103625	     -8.41359802	      0.22665386	      0.89068759	      0.22360437	      2.51081721	      4.46746930	      3.73129758	    -30.88999449	     19.99795479	     -2.94035646	     28.16751162	     -9.96719905	    -19.06786650	    -17.79484677	      3.05490144	     -1.74128501	    -12.74680315	     -3.45270236	     14.80405894
      2.90000000	     -1.52328213	     -2.45602732	     -8.46526785	      0.21710504	      0.89109574	      0.22510172	      3.07682602	      4.92688761	      3.57140166	    -30.77272936	     20.04856481	     -3.57567317	     28.60475894	    -10.52771833	    -19.24951884	    -19.19857885	      3.30905771	     -1.69195406	    -12.97264976	     -3.23097758	     14.39152528
      2.91000000	     -1.52496257	     -2.61381269	     -8.49520498	      0.20780890	      0.89177307	      0.22651072	      3.64531188	      5.30686188	      3.38836064	    -30.66891949	     19.92393488	     -4.22850659	     29.00329061	    -10.98062666	    -19.17494169	    -20.77671707	      3.53264303	     -1.67249158	    -13.17375711	     -3.09512692	     13.92102318
      2.92000000	     -1.48582847	     -2.70757719	     -8.53346045	      0.19875441	      0.89277535	      0.22783947	      4.17119817	      5.60680904	      3.24800333	    -30.56640330	     19.67402709	     -4.80400367	     29.30007534	    -11.31920912	    -18.86686819	    -22.47605480	      3.78306888	     -1.67318094	    -13.39022618	     -3.03777522	     13.40650761
      2.93000000	     -1.40929616	     -2.74298606	     -8.57870482	      0.18992679	      0.89408762	      0.22908965	      4.64571216	      5.82997586	      3.14959255	    -30.44396847	     19.31669769	     -5.26847989	     29.49829996	    -11.54130278	    -18.36009733	    -24.27358451	      4.06199492	     -1.67867151	    -13.61751205	     -3.05390250	     12.87140757
      2.94000000	     -1.30150905	     -2.72452329	     -8.63392841	      0.18130423	      0.89568029	      0.23023945	      5.07156415	      5.97691218	      3.09512682	    -30.29443999	     18.86334403	     -5.61188341	     29.60091581	    -11.64578010	    -17.70341666	    -26.14185072	      4.36649236	     -1.67709256	    -13.85010880	     -3.13060777	     12.32588778
      2.95000000	     -1.18564284	     -2.65907614	     -8.69656981	      0.17287106	      0.89748867	      0.23127993	      5.46359165	      6.05582188	      3.08552143	    -30.10019267	     18.33871179	     -5.86106503	     29.63690936	    -11.64277833	    -16.95439548	    -28.06554784	      4.67539469	     -1.66309977	    -14.06076853	     -3.25360624	     11.77774698
      2.96000000	     -1.06767458	     -2.55363644	     -8.76517326	      0.16460808	      0.89945777	      0.23220597	      5.82685508	      6.07274403	      3.10835362	    -29.85885983	     17.76335134	     -6.01709796	     29.61358033	    -11.54584920	    -16.17894087	    -30.02968428	      4.98309633	     -1.63155122	    -14.24447103	     -3.40905126	     11.22628762
      2.97000000	     -0.96323835	     -2.41764432	     -8.83225672	      0.15653744	      0.90152565	      0.23299830	      6.16612848	      6.03613545	      3.14122322	    -29.55489981	     17.15997573	     -6.08701344	     29.54691854	    -11.37319029	    -15.43408218	    -32.02047795	      5.27791235	     -1.57947388	    -14.37803798	     -3.57808689	     10.67526808
      2.98000000	     -0.85610199	     -2.25339967	     -8.90546309	      0.14860957	      0.90366503	      0.23366425	      6.48441005	      5.94609661	      3.17043477	    -29.22451623	     16.51062878	     -6.07668493	     29.40916434	    -11.12863947	    -14.73626857	    -34.00276652	      5.56576397	     -1.51577832	    -14.48817049	     -3.76333708	     10.14866200
      2.99000000	     -0.76443016	     -2.06663277	     -8.98133503	      0.14083070	      0.90580301	      0.23421817	      6.79309099	      5.81585774	      3.19158393	    -28.85696901	     15.84092445	     -6.01490787	     29.21983529	    -10.83472622	    -14.12836831	    -35.96826278	      5.82431595	     -1.44694890	    -14.55154111	     -3.95444234	      9.63913068
      3.00000000	     -0.70879300	     -1.87609183	     -9.04355508	      0.13321483	      0.90785970	      0.23464762	      7.09640916	      5.66917706	      3.19339510	    -28.42725309	     15.18392401	     -5.89747531	     29.00953144	    -10.52138431	    -13.62170015	    -37.91830199	      6.04186650	     -1.37390487	    -14.54369636	     -4.12339840	      9.12904257
      3.01000000	     -0.66513508	     -1.67799936	     -9.11226078	      0.12571138	      0.90984008	      0.23498667	      7.39409509	      5.50467762	      3.18588053	    -27.97970183	     14.51843438	     -5.77323009	     28.73387068	    -10.18834561	    -13.21546197	    -39.81132435	      6.21867887	     -1.31431888	    -14.49949442	     -4.28547036	      8.65744683
      3.02000000	     -0.63970313	     -1.48660922	     -9.18256883	      0.11831598	      0.91169921	      0.23524222	      7.68819391	      5.34145085	      3.17173807	    -27.51125075	     13.85959898	     -5.65158052	     28.40240523	     -9.85780219	    -12.90634670	    -41.64326636	      6.35280846	     -1.26623712	    -14.41366739	     -4.42522614	      8.21797680
      3.03000000	     -0.62979160	     -1.27310628	     -9.28438112	      0.11102744	      0.91344082	      0.23545379	      7.97492357	      5.15500294	      3.19690429	    -27.00977507	     13.20716329	     -5.58506367	     27.98816262	     -9.51440998	    -12.72943479	    -43.36990844	      6.45973848	     -1.22402309	    -14.28257846	     -4.58270093	      7.84371020
      3.04000000	     -0.66409502	     -1.15493170	     -9.33391779	      0.10380837	      0.91494470	      0.23553565	      8.27272843	      5.06369310	      3.15092077	    -26.48624751	     12.60904138	     -5.41499794	     27.58365732	     -9.25798615	    -12.55221924	    -45.07401842	      6.52337164	     -1.17492187	    -14.10568571	     -4.60266620	      7.44324838
      3.05000000	     -0.69748621	     -0.99131329	     -9.43716340	      0.09666244	      0.91633404	      0.23560516	      8.57243277	      4.92999788	      3.19196192	    -25.97139478	     12.00464343	     -5.34652818	     27.06072296	     -8.96341611	    -12.49329320	    -46.62161614	      6.56457620	     -1.12553875	    -13.90251533	     -4.68181312	      7.13148847
      3.06000000	     -0.75424691	     -0.90164313	     -9.51989767	      0.08957566	      0.91752827	      0.23558141	      8.87396684	      4.87001827	      3.20233924	    -25.44706409	     11.41312553	     -5.23247160	     26.49867877	     -8.74006837	    -12.45013735	    -48.09133590	      6.57100395	     -1.05716091	    -13.67637195	     -4.66103228	      6.83151592
